<?xml version="1.0" standalone="no"?>
<!DOCTYPE svg PUBLIC "-//W3C//DTD SVG 20010904//EN"
 "http://www.w3.org/TR/2001/REC-SVG-20010904/DTD/svg10.dtd">
<svg version="1.0" xmlns="http://www.w3.org/2000/svg"
 width="4793.000000pt" height="4793.000000pt" viewBox="0 0 4793.000000 4793.000000"
 preserveAspectRatio="xMidYMid meet">
<metadata>
Created by potrace 1.11, written by Peter Selinger 2001-2013
</metadata>
<g transform="translate(0.000000,4793.000000) scale(0.100000,-0.100000)"
fill="#000000" stroke="none">
<path d="M8360 47913 c-1179 -63 -2232 -320 -3266 -797 -1428 -659 -2686
-1727 -3578 -3038 -593 -873 -1026 -1848 -1271 -2861 -134 -558 -209 -1100
-235 -1702 -13 -316 -13 -30796 0 -31105 22 -509 73 -927 171 -1410 457 -2248
1827 -4267 3764 -5545 1304 -860 2766 -1346 4319 -1435 248 -14 31144 -14
31392 0 2741 157 5242 1588 6781 3880 906 1351 1401 2866 1473 4510 13 309 13
30789 0 31105 -12 269 -24 426 -51 660 -161 1399 -658 2730 -1455 3903 -982
1443 -2388 2574 -4004 3222 -257 103 -706 253 -955 320 -520 138 -976 218
-1590 277 -170 16 -1083 17 -15810 18 -8596 1 -15655 0 -15685 -2z m9326
-20798 c3445 -5753 6268 -10461 6272 -10463 5 -1 1331 2206 2948 4905 1616
2699 4436 7408 6266 10463 l3327 5555 310 3 311 2 0 -13615 0 -13615 -385 0
-385 0 -2 12767 -3 12768 -6037 -10080 -6036 -10080 -312 0 -312 0 -1327 2215
c-729 1218 -3445 5754 -6036 10080 l-4710 7865 -3 -12768 -2 -12767 -385 0
-385 0 0 13615 0 13615 311 -2 310 -3 6265 -10460z"/>
</g>
</svg>
